<?xml version="1.0" encoding="utf-8" standalone="no"?>
<!DOCTYPE svg PUBLIC "-//W3C//DTD SVG 1.1//EN"
  "http://www.w3.org/Graphics/SVG/1.1/DTD/svg11.dtd">
<svg xmlns:xlink="http://www.w3.org/1999/xlink" width="518.740157pt" height="411.023622pt" viewBox="0 0 518.740157 411.023622" xmlns="http://www.w3.org/2000/svg" version="1.1">
 <metadata>
  <rdf:RDF xmlns:dc="http://purl.org/dc/elements/1.1/" xmlns:cc="http://creativecommons.org/ns#" xmlns:rdf="http://www.w3.org/1999/02/22-rdf-syntax-ns#">
   <cc:Work>
    <dc:type rdf:resource="http://purl.org/dc/dcmitype/StillImage"/>
    <dc:format>image/svg+xml</dc:format>
    <dc:creator>
     <cc:Agent>
      <dc:title>JEV offline figures</dc:title>
     </cc:Agent>
    </dc:creator>
   </cc:Work>
  </rdf:RDF>
 </metadata>
 <defs>
  <style type="text/css">*{stroke-linejoin: round; stroke-linecap: butt}</style>
 </defs>
 <g id="figure_1">
  <g id="patch_1">
   <path d="M 0 411.023622 
L 518.740157 411.023622 
L 518.740157 0 
L 0 0 
z
" style="fill: #ffffff"/>
  </g>
  <g id="axes_1">
   <g id="patch_2">
    <path d="M 46.686614 139.659321 
L 237.972047 139.659321 
L 237.972047 28.771654 
L 46.686614 28.771654 
z
" style="fill: #ffffff"/>
   </g>
   <g id="matplotlib.axis_1">
    <g id="xtick_1">
     <g id="line2d_1">
      <defs>
       <path id="ma58bea29cb" d="M 0 0 
L 0 2.5 
" style="stroke: #000000; stroke-width: 0.6"/>
      </defs>
      <g>
       <use xlink:href="#ma58bea29cb" x="64.697256" y="139.659321" style="stroke: #000000; stroke-width: 0.6"/>
      </g>
     </g>
     <g id="text_1">
      <text style="font-size: 7px; font-family: 'Arial'; text-anchor: middle" x="64.697256" y="150.66979" transform="rotate(-0 64.697256 150.66979)">Jev</text>
     </g>
    </g>
    <g id="xtick_2">
     <g id="line2d_2">
      <g>
       <use xlink:href="#ma58bea29cb" x="116.451972" y="139.659321" style="stroke: #000000; stroke-width: 0.6"/>
      </g>
     </g>
     <g id="text_2">
      <text style="font-size: 7px; font-family: 'Arial'; text-anchor: middle" x="116.451972" y="150.66979" transform="rotate(-0 116.451972 150.66979)">Luna</text>
     </g>
    </g>
    <g id="xtick_3">
     <g id="line2d_3">
      <g>
       <use xlink:href="#ma58bea29cb" x="168.206689" y="139.659321" style="stroke: #000000; stroke-width: 0.6"/>
      </g>
     </g>
     <g id="text_3">
      <text style="font-size: 7px; font-family: 'Arial'; text-anchor: middle" x="168.206689" y="150.66979" transform="rotate(-0 168.206689 150.66979)">Gemini</text>
     </g>
    </g>
    <g id="xtick_4">
     <g id="line2d_4">
      <g>
       <use xlink:href="#ma58bea29cb" x="219.961406" y="139.659321" style="stroke: #000000; stroke-width: 0.6"/>
      </g>
     </g>
     <g id="text_4">
      <text style="font-size: 7px; font-family: 'Arial'; text-anchor: middle" x="219.961406" y="150.755103" transform="rotate(-0 219.961406 150.755103)">DeepSeek</text>
     </g>
    </g>
   </g>
   <g id="matplotlib.axis_2">
    <g id="ytick_1">
     <g id="line2d_5">
      <defs>
       <path id="m8c8992416b" d="M 0 0 
L -2.5 0 
" style="stroke: #000000; stroke-width: 0.6"/>
      </defs>
      <g>
       <use xlink:href="#m8c8992416b" x="46.686614" y="129.932333" style="stroke: #000000; stroke-width: 0.6"/>
      </g>
     </g>
     <g id="text_5">
      <text style="font-size: 7px; font-family: 'Arial'; text-anchor: end" x="40.686614" y="132.437567" transform="rotate(-0 40.686614 132.437567)">50</text>
     </g>
    </g>
    <g id="ytick_2">
     <g id="line2d_6">
      <g>
       <use xlink:href="#m8c8992416b" x="46.686614" y="110.478356" style="stroke: #000000; stroke-width: 0.6"/>
      </g>
     </g>
     <g id="text_6">
      <text style="font-size: 7px; font-family: 'Arial'; text-anchor: end" x="40.686614" y="112.983591" transform="rotate(-0 40.686614 112.983591)">60</text>
     </g>
    </g>
    <g id="ytick_3">
     <g id="line2d_7">
      <g>
       <use xlink:href="#m8c8992416b" x="46.686614" y="91.024379" style="stroke: #000000; stroke-width: 0.6"/>
      </g>
     </g>
     <g id="text_7">
      <text style="font-size: 7px; font-family: 'Arial'; text-anchor: end" x="40.686614" y="93.529614" transform="rotate(-0 40.686614 93.529614)">70</text>
     </g>
    </g>
    <g id="ytick_4">
     <g id="line2d_8">
      <g>
       <use xlink:href="#m8c8992416b" x="46.686614" y="71.570403" style="stroke: #000000; stroke-width: 0.6"/>
      </g>
     </g>
     <g id="text_8">
      <text style="font-size: 7px; font-family: 'Arial'; text-anchor: end" x="40.686614" y="74.075637" transform="rotate(-0 40.686614 74.075637)">80</text>
     </g>
    </g>
    <g id="ytick_5">
     <g id="line2d_9">
      <g>
       <use xlink:href="#m8c8992416b" x="46.686614" y="52.116426" style="stroke: #000000; stroke-width: 0.6"/>
      </g>
     </g>
     <g id="text_9">
      <text style="font-size: 7px; font-family: 'Arial'; text-anchor: end" x="40.686614" y="54.62166" transform="rotate(-0 40.686614 54.62166)">90</text>
     </g>
    </g>
    <g id="ytick_6">
     <g id="line2d_10">
      <g>
       <use xlink:href="#m8c8992416b" x="46.686614" y="32.662449" style="stroke: #000000; stroke-width: 0.6"/>
      </g>
     </g>
     <g id="text_10">
      <text style="font-size: 7px; font-family: 'Arial'; text-anchor: end" x="40.686614" y="35.167683" transform="rotate(-0 40.686614 35.167683)">100</text>
     </g>
    </g>
    <g id="text_11">
     <text style="font-size: 7px; font-family: 'Arial'; text-anchor: middle" x="23.535364" y="84.215487" transform="rotate(-90 23.535364 84.215487)">Reference-label agreement (%)</text>
    </g>
   </g>
   <g id="patch_3">
    <path d="M 46.686614 139.659321 
L 46.686614 28.771654 
" style="fill: none; stroke: #000000; stroke-width: 0.6; stroke-linejoin: miter; stroke-linecap: square"/>
   </g>
   <g id="patch_4">
    <path d="M 46.686614 139.659321 
L 237.972047 139.659321 
" style="fill: none; stroke: #000000; stroke-width: 0.6; stroke-linejoin: miter; stroke-linecap: square"/>
   </g>
   <g id="PathCollection_1">
    <defs>
     <path id="m3448b296f3" d="M 0 2.345208 
C 0.621956 2.345208 1.218523 2.098102 1.658312 1.658312 
C 2.098102 1.218523 2.345208 0.621956 2.345208 0 
C 2.345208 -0.621956 2.098102 -1.218523 1.658312 -1.658312 
C 1.218523 -2.098102 0.621956 -2.345208 0 -2.345208 
C -0.621956 -2.345208 -1.218523 -2.098102 -1.658312 -1.658312 
C -2.098102 -1.218523 -2.345208 -0.621956 -2.345208 0 
C -2.345208 0.621956 -2.098102 1.218523 -1.658312 1.658312 
C -1.218523 2.098102 -0.621956 2.345208 0 2.345208 
z
" style="stroke: #237a8a"/>
    </defs>
    <g clip-path="url(#p8e19f687bc)">
     <use xlink:href="#m3448b296f3" x="55.381407" y="84.134429" style="fill: #237a8a; stroke: #237a8a"/>
     <use xlink:href="#m3448b296f3" x="107.136123" y="105.209571" style="fill: #237a8a; stroke: #237a8a"/>
     <use xlink:href="#m3448b296f3" x="158.89084" y="111.69423" style="fill: #237a8a; stroke: #237a8a"/>
     <use xlink:href="#m3448b296f3" x="210.645557" y="108.857191" style="fill: #237a8a; stroke: #237a8a"/>
    </g>
   </g>
   <g id="PathCollection_2">
    <defs>
     <path id="m7162ee5dfc" d="M -2.345208 2.345208 
L 2.345208 2.345208 
L 2.345208 -2.345208 
L -2.345208 -2.345208 
z
" style="stroke: #747987"/>
    </defs>
    <g clip-path="url(#p8e19f687bc)">
     <use xlink:href="#m7162ee5dfc" x="64.697256" y="67.1122" style="fill: #747987; stroke: #747987"/>
     <use xlink:href="#m7162ee5dfc" x="116.451972" y="77.244479" style="fill: #747987; stroke: #747987"/>
     <use xlink:href="#m7162ee5dfc" x="168.206689" y="77.852416" style="fill: #747987; stroke: #747987"/>
     <use xlink:href="#m7162ee5dfc" x="219.961406" y="75.420669" style="fill: #747987; stroke: #747987"/>
    </g>
   </g>
   <g id="PathCollection_3">
    <defs>
     <path id="m5a274bd25d" d="M 0 -2.345208 
L -2.345208 2.345208 
L 2.345208 2.345208 
z
" style="stroke: #aa8650"/>
    </defs>
    <g clip-path="url(#p8e19f687bc)">
     <use xlink:href="#m5a274bd25d" x="74.013105" y="50.08997" style="fill: #aa8650; stroke: #aa8650"/>
     <use xlink:href="#m5a274bd25d" x="125.767821" y="49.279387" style="fill: #aa8650; stroke: #aa8650"/>
     <use xlink:href="#m5a274bd25d" x="177.522538" y="44.010602" style="fill: #aa8650; stroke: #aa8650"/>
     <use xlink:href="#m5a274bd25d" x="229.277255" y="41.984146" style="fill: #aa8650; stroke: #aa8650"/>
    </g>
   </g>
   <g id="text_12">
    <text style="font-weight: 700; font-size: 8px; font-family: 'Arial'; text-anchor: start" x="21.819508" y="25.62689" transform="rotate(-0 21.819508 25.62689)">a</text>
   </g>
   <g id="text_13">
    <text style="font-size: 7px; font-family: 'Arial'; text-anchor: start" x="46.686614" y="20.771654" transform="rotate(-0 46.686614 20.771654)">Agreement by reference-label stratum</text>
   </g>
   <g id="legend_1">
    <g id="PathCollection_4">
     <g>
      <use xlink:href="#m3448b296f3" x="86.477065" y="170.712402" style="fill: #237a8a; stroke: #237a8a"/>
     </g>
    </g>
    <g id="text_14">
     <text style="font-size: 6.5px; font-family: 'Arial'; text-anchor: start" x="95.577065" y="172.418652" transform="rotate(-0 95.577065 172.418652)">Single-grade reference scenarios (15)</text>
    </g>
    <g id="PathCollection_5">
     <g>
      <use xlink:href="#m7162ee5dfc" x="86.477065" y="178.437246" style="fill: #747987; stroke: #747987"/>
     </g>
    </g>
    <g id="text_15">
     <text style="font-size: 6.5px; font-family: 'Arial'; text-anchor: start" x="95.577065" y="180.143496" transform="rotate(-0 95.577065 180.143496)">All main scenarios (30)</text>
    </g>
    <g id="PathCollection_6">
     <g>
      <use xlink:href="#m5a274bd25d" x="86.477065" y="186.162089" style="fill: #aa8650; stroke: #aa8650"/>
     </g>
    </g>
    <g id="text_16">
     <text style="font-size: 6.5px; font-family: 'Arial'; text-anchor: start" x="95.577065" y="187.868339" transform="rotate(-0 95.577065 187.868339)">Two-grade reference scenarios (15)</text>
    </g>
   </g>
  </g>
  <g id="axes_2">
   <g id="patch_5">
    <path d="M 314.48622 139.659321 
L 505.771654 139.659321 
L 505.771654 28.771654 
L 314.48622 28.771654 
z
" style="fill: #ffffff"/>
   </g>
   <g id="matplotlib.axis_3">
    <g id="xtick_5">
     <g id="line2d_11">
      <g>
       <use xlink:href="#ma58bea29cb" x="322.137638" y="139.659321" style="stroke: #000000; stroke-width: 0.6"/>
      </g>
     </g>
     <g id="text_17">
      <text style="font-size: 7px; font-family: 'Arial'; text-anchor: middle" x="322.137638" y="150.66979" transform="rotate(-0 322.137638 150.66979)">0</text>
     </g>
    </g>
    <g id="xtick_6">
     <g id="line2d_12">
      <g>
       <use xlink:href="#ma58bea29cb" x="360.394724" y="139.659321" style="stroke: #000000; stroke-width: 0.6"/>
      </g>
     </g>
     <g id="text_18">
      <text style="font-size: 7px; font-family: 'Arial'; text-anchor: middle" x="360.394724" y="150.66979" transform="rotate(-0 360.394724 150.66979)">5</text>
     </g>
    </g>
    <g id="xtick_7">
     <g id="line2d_13">
      <g>
       <use xlink:href="#ma58bea29cb" x="398.651811" y="139.659321" style="stroke: #000000; stroke-width: 0.6"/>
      </g>
     </g>
     <g id="text_19">
      <text style="font-size: 7px; font-family: 'Arial'; text-anchor: middle" x="398.651811" y="150.66979" transform="rotate(-0 398.651811 150.66979)">10</text>
     </g>
    </g>
    <g id="xtick_8">
     <g id="line2d_14">
      <g>
       <use xlink:href="#ma58bea29cb" x="436.908898" y="139.659321" style="stroke: #000000; stroke-width: 0.6"/>
      </g>
     </g>
     <g id="text_20">
      <text style="font-size: 7px; font-family: 'Arial'; text-anchor: middle" x="436.908898" y="150.66979" transform="rotate(-0 436.908898 150.66979)">15</text>
     </g>
    </g>
    <g id="xtick_9">
     <g id="line2d_15">
      <g>
       <use xlink:href="#ma58bea29cb" x="475.165984" y="139.659321" style="stroke: #000000; stroke-width: 0.6"/>
      </g>
     </g>
     <g id="text_21">
      <text style="font-size: 7px; font-family: 'Arial'; text-anchor: middle" x="475.165984" y="150.66979" transform="rotate(-0 475.165984 150.66979)">20</text>
     </g>
    </g>
    <g id="text_22">
     <text style="font-size: 7px; font-family: 'Arial'; text-anchor: middle" x="410.128937" y="161.156821" transform="rotate(-0 410.128937 161.156821)">Jev − Luna agreement (percentage points)</text>
    </g>
   </g>
   <g id="matplotlib.axis_4">
    <g id="ytick_7">
     <g id="line2d_16">
      <g>
       <use xlink:href="#m8c8992416b" x="314.48622" y="51.601468" style="stroke: #000000; stroke-width: 0.6"/>
      </g>
     </g>
     <g id="text_23">
      <text style="font-size: 7px; font-family: 'Arial'; text-anchor: end" x="308.48622" y="54.106702" transform="rotate(-0 308.48622 54.106702)">Round 1*</text>
     </g>
    </g>
    <g id="ytick_8">
     <g id="line2d_17">
      <g>
       <use xlink:href="#m8c8992416b" x="314.48622" y="84.215487" style="stroke: #000000; stroke-width: 0.6"/>
      </g>
     </g>
     <g id="text_24">
      <text style="font-size: 7px; font-family: 'Arial'; text-anchor: end" x="308.48622" y="86.720722" transform="rotate(-0 308.48622 86.720722)">Round 2</text>
     </g>
    </g>
    <g id="ytick_9">
     <g id="line2d_18">
      <g>
       <use xlink:href="#m8c8992416b" x="314.48622" y="116.829507" style="stroke: #000000; stroke-width: 0.6"/>
      </g>
     </g>
     <g id="text_25">
      <text style="font-size: 7px; font-family: 'Arial'; text-anchor: end" x="308.48622" y="119.334742" transform="rotate(-0 308.48622 119.334742)">Round 3</text>
     </g>
    </g>
   </g>
   <g id="LineCollection_1">
    <path d="M 344.454272 51.601468 
L 473.571939 51.601468 
" clip-path="url(#pd80a57b951)" style="fill: none; stroke: #237a8a"/>
   </g>
   <g id="line2d_19">
    <defs>
     <path id="m5f9aee5e85" d="M 0 2 
L 0 -2 
" style="stroke: #237a8a"/>
    </defs>
    <g clip-path="url(#pd80a57b951)">
     <use xlink:href="#m5f9aee5e85" x="344.454272" y="51.601468" style="fill: #237a8a; stroke: #237a8a"/>
    </g>
   </g>
   <g id="line2d_20">
    <g clip-path="url(#pd80a57b951)">
     <use xlink:href="#m5f9aee5e85" x="473.571939" y="51.601468" style="fill: #237a8a; stroke: #237a8a"/>
    </g>
   </g>
   <g id="LineCollection_2">
    <path d="M 339.672136 84.215487 
L 471.977894 84.215487 
" clip-path="url(#pd80a57b951)" style="fill: none; stroke: #747987"/>
   </g>
   <g id="line2d_21">
    <defs>
     <path id="m696b19277c" d="M 0 2 
L 0 -2 
" style="stroke: #747987"/>
    </defs>
    <g clip-path="url(#pd80a57b951)">
     <use xlink:href="#m696b19277c" x="339.672136" y="84.215487" style="fill: #747987; stroke: #747987"/>
    </g>
   </g>
   <g id="line2d_22">
    <g clip-path="url(#pd80a57b951)">
     <use xlink:href="#m696b19277c" x="471.977894" y="84.215487" style="fill: #747987; stroke: #747987"/>
    </g>
   </g>
   <g id="LineCollection_3">
    <path d="M 330.107864 116.829507 
L 459.225531 116.829507 
" clip-path="url(#pd80a57b951)" style="fill: none; stroke: #747987"/>
   </g>
   <g id="line2d_23">
    <g clip-path="url(#pd80a57b951)">
     <use xlink:href="#m696b19277c" x="330.107864" y="116.829507" style="fill: #747987; stroke: #747987"/>
    </g>
   </g>
   <g id="line2d_24">
    <g clip-path="url(#pd80a57b951)">
     <use xlink:href="#m696b19277c" x="459.225531" y="116.829507" style="fill: #747987; stroke: #747987"/>
    </g>
   </g>
   <g id="line2d_25">
    <path d="M 322.137638 139.659321 
L 322.137638 28.771654 
" clip-path="url(#pd80a57b951)" style="fill: none; stroke-dasharray: 2.59,1.12; stroke-dashoffset: 0; stroke: #999999; stroke-width: 0.7"/>
   </g>
   <g id="line2d_26">
    <defs>
     <path id="me4cd82999f" d="M 0 2.5 
C 0.663008 2.5 1.29895 2.236584 1.767767 1.767767 
C 2.236584 1.29895 2.5 0.663008 2.5 0 
C 2.5 -0.663008 2.236584 -1.29895 1.767767 -1.767767 
C 1.29895 -2.236584 0.663008 -2.5 0 -2.5 
C -0.663008 -2.5 -1.29895 -2.236584 -1.767767 -1.767767 
C -2.236584 -1.29895 -2.5 -0.663008 -2.5 0 
C -2.5 0.663008 -2.236584 1.29895 -1.767767 1.767767 
C -1.29895 2.236584 -0.663008 2.5 0 2.5 
z
" style="stroke: #237a8a"/>
    </defs>
    <g clip-path="url(#pd80a57b951)">
     <use xlink:href="#me4cd82999f" x="405.027992" y="51.601468" style="fill: #237a8a; stroke: #237a8a"/>
    </g>
   </g>
   <g id="line2d_27">
    <defs>
     <path id="m93addf52fb" d="M 0 2 
C 0.530406 2 1.03916 1.789267 1.414214 1.414214 
C 1.789267 1.03916 2 0.530406 2 0 
C 2 -0.530406 1.789267 -1.03916 1.414214 -1.414214 
C 1.03916 -1.789267 0.530406 -2 0 -2 
C -0.530406 -2 -1.03916 -1.789267 -1.414214 -1.414214 
C -1.789267 -1.03916 -2 -0.530406 -2 0 
C -2 0.530406 -1.789267 1.03916 -1.414214 1.414214 
C -1.03916 1.789267 -0.530406 2 0 2 
z
" style="stroke: #747987"/>
    </defs>
    <g clip-path="url(#pd80a57b951)">
     <use xlink:href="#m93addf52fb" x="401.839902" y="84.215487" style="fill: #747987; stroke: #747987"/>
    </g>
   </g>
   <g id="line2d_28">
    <g clip-path="url(#pd80a57b951)">
     <use xlink:href="#m93addf52fb" x="392.27563" y="116.829507" style="fill: #747987; stroke: #747987"/>
    </g>
   </g>
   <g id="patch_6">
    <path d="M 314.48622 139.659321 
L 314.48622 28.771654 
" style="fill: none; stroke: #000000; stroke-width: 0.6; stroke-linejoin: miter; stroke-linecap: square"/>
   </g>
   <g id="patch_7">
    <path d="M 314.48622 139.659321 
L 505.771654 139.659321 
" style="fill: none; stroke: #000000; stroke-width: 0.6; stroke-linejoin: miter; stroke-linecap: square"/>
   </g>
   <g id="text_26">
    <text style="font-size: 6.4px; font-family: 'Arial'; text-anchor: end" x="498.120236" y="62.397393" transform="rotate(-0 498.120236 62.397393)">10.83 [2.92, 19.79]</text>
   </g>
   <g id="text_27">
    <text style="font-size: 6.4px; font-family: 'Arial'; text-anchor: end" x="498.120236" y="95.011413" transform="rotate(-0 498.120236 95.011413)">10.42 [2.29, 19.58]</text>
   </g>
   <g id="text_28">
    <text style="font-size: 6.4px; font-family: 'Arial'; text-anchor: end" x="498.120236" y="127.625433" transform="rotate(-0 498.120236 127.625433)">9.17 [1.04, 17.92]</text>
   </g>
   <g id="text_29">
    <text style="font-weight: 700; font-size: 8px; font-family: 'Arial'; text-anchor: start" x="289.619114" y="25.62689" transform="rotate(-0 289.619114 25.62689)">b</text>
   </g>
   <g id="text_30">
    <text style="font-size: 7px; font-family: 'Arial'; text-anchor: start" x="314.48622" y="20.771654" transform="rotate(-0 314.48622 20.771654)">Prespecified comparison · single-grade</text>
   </g>
  </g>
  <g id="axes_3">
   <g id="patch_8">
    <path d="M 46.686614 337.03937 
L 237.972047 337.03937 
L 237.972047 226.151702 
L 46.686614 226.151702 
z
" style="fill: #ffffff"/>
   </g>
   <g id="patch_9">
    <path d="M 46.686614 231.192051 
L 50.07396 231.192051 
L 50.07396 247.993213 
L 46.686614 247.993213 
z
" clip-path="url(#p4c9def488a)" style="fill: #c77c65; stroke: #ffffff; stroke-width: 0.3; stroke-linejoin: miter"/>
   </g>
   <g id="patch_10">
    <path d="M 46.686614 259.193987 
L 53.859818 259.193987 
L 53.859818 275.995149 
L 46.686614 275.995149 
z
" clip-path="url(#p4c9def488a)" style="fill: #c77c65; stroke: #ffffff; stroke-width: 0.3; stroke-linejoin: miter"/>
   </g>
   <g id="patch_11">
    <path d="M 46.686614 287.195923 
L 55.852375 287.195923 
L 55.852375 303.997085 
L 46.686614 303.997085 
z
" clip-path="url(#p4c9def488a)" style="fill: #c77c65; stroke: #ffffff; stroke-width: 0.3; stroke-linejoin: miter"/>
   </g>
   <g id="patch_12">
    <path d="M 46.686614 315.19786 
L 50.870983 315.19786 
L 50.870983 331.999022 
L 46.686614 331.999022 
z
" clip-path="url(#p4c9def488a)" style="fill: #c77c65; stroke: #ffffff; stroke-width: 0.3; stroke-linejoin: miter"/>
   </g>
   <g id="patch_13">
    <path d="M 50.07396 231.192051 
L 207.485931 231.192051 
L 207.485931 247.993213 
L 50.07396 247.993213 
z
" clip-path="url(#p4c9def488a)" style="fill: #b9cdd0; stroke: #ffffff; stroke-width: 0.3; stroke-linejoin: miter"/>
   </g>
   <g id="patch_14">
    <path d="M 53.859818 259.193987 
L 201.309006 259.193987 
L 201.309006 275.995149 
L 53.859818 275.995149 
z
" clip-path="url(#p4c9def488a)" style="fill: #b9cdd0; stroke: #ffffff; stroke-width: 0.3; stroke-linejoin: miter"/>
   </g>
   <g id="patch_15">
    <path d="M 55.852375 287.195923 
L 202.703796 287.195923 
L 202.703796 303.997085 
L 55.852375 303.997085 
z
" clip-path="url(#p4c9def488a)" style="fill: #b9cdd0; stroke: #ffffff; stroke-width: 0.3; stroke-linejoin: miter"/>
   </g>
   <g id="patch_16">
    <path d="M 50.870983 315.19786 
L 200.113472 315.19786 
L 200.113472 331.999022 
L 50.870983 331.999022 
z
" clip-path="url(#p4c9def488a)" style="fill: #b9cdd0; stroke: #ffffff; stroke-width: 0.3; stroke-linejoin: miter"/>
   </g>
   <g id="patch_17">
    <path d="M 207.485931 231.192051 
L 236.577258 231.192051 
L 236.577258 247.993213 
L 207.485931 247.993213 
z
" clip-path="url(#p4c9def488a)" style="fill: #c6b793; stroke: #ffffff; stroke-width: 0.3; stroke-linejoin: miter"/>
   </g>
   <g id="patch_18">
    <path d="M 201.309006 259.193987 
L 237.972047 259.193987 
L 237.972047 275.995149 
L 201.309006 275.995149 
z
" clip-path="url(#p4c9def488a)" style="fill: #c6b793; stroke: #ffffff; stroke-width: 0.3; stroke-linejoin: miter"/>
   </g>
   <g id="patch_19">
    <path d="M 202.703796 287.195923 
L 237.972047 287.195923 
L 237.972047 303.997085 
L 202.703796 303.997085 
z
" clip-path="url(#p4c9def488a)" style="fill: #c6b793; stroke: #ffffff; stroke-width: 0.3; stroke-linejoin: miter"/>
   </g>
   <g id="patch_20">
    <path d="M 200.113472 315.19786 
L 237.772792 315.19786 
L 237.772792 331.999022 
L 200.113472 331.999022 
z
" clip-path="url(#p4c9def488a)" style="fill: #c6b793; stroke: #ffffff; stroke-width: 0.3; stroke-linejoin: miter"/>
   </g>
   <g id="patch_21">
    <path d="M 236.577258 231.192051 
L 237.972047 231.192051 
L 237.972047 247.993213 
L 236.577258 247.993213 
z
" clip-path="url(#p4c9def488a)" style="fill: #444444; stroke: #ffffff; stroke-width: 0.3; stroke-linejoin: miter"/>
   </g>
   <g id="patch_22">
    <path d="M 237.972047 259.193987 
L 237.972047 259.193987 
L 237.972047 275.995149 
L 237.972047 275.995149 
z
" clip-path="url(#p4c9def488a)" style="fill: #444444; stroke: #ffffff; stroke-width: 0.3; stroke-linejoin: miter"/>
   </g>
   <g id="patch_23">
    <path d="M 237.972047 287.195923 
L 237.972047 287.195923 
L 237.972047 303.997085 
L 237.972047 303.997085 
z
" clip-path="url(#p4c9def488a)" style="fill: #444444; stroke: #ffffff; stroke-width: 0.3; stroke-linejoin: miter"/>
   </g>
   <g id="patch_24">
    <path d="M 237.772792 315.19786 
L 237.972047 315.19786 
L 237.972047 331.999022 
L 237.772792 331.999022 
z
" clip-path="url(#p4c9def488a)" style="fill: #444444; stroke: #ffffff; stroke-width: 0.3; stroke-linejoin: miter"/>
   </g>
   <g id="matplotlib.axis_5">
    <g id="xtick_10">
     <g id="line2d_29">
      <g>
       <use xlink:href="#ma58bea29cb" x="46.686614" y="337.03937" style="stroke: #000000; stroke-width: 0.6"/>
      </g>
     </g>
     <g id="text_31">
      <text style="font-size: 7px; font-family: 'Arial'; text-anchor: middle" x="46.686614" y="348.049839" transform="rotate(-0 46.686614 348.049839)">0</text>
     </g>
    </g>
    <g id="xtick_11">
     <g id="line2d_30">
      <g>
       <use xlink:href="#ma58bea29cb" x="84.943701" y="337.03937" style="stroke: #000000; stroke-width: 0.6"/>
      </g>
     </g>
     <g id="text_32">
      <text style="font-size: 7px; font-family: 'Arial'; text-anchor: middle" x="84.943701" y="348.049839" transform="rotate(-0 84.943701 348.049839)">20</text>
     </g>
    </g>
    <g id="xtick_12">
     <g id="line2d_31">
      <g>
       <use xlink:href="#ma58bea29cb" x="123.200787" y="337.03937" style="stroke: #000000; stroke-width: 0.6"/>
      </g>
     </g>
     <g id="text_33">
      <text style="font-size: 7px; font-family: 'Arial'; text-anchor: middle" x="123.200787" y="348.049839" transform="rotate(-0 123.200787 348.049839)">40</text>
     </g>
    </g>
    <g id="xtick_13">
     <g id="line2d_32">
      <g>
       <use xlink:href="#ma58bea29cb" x="161.457874" y="337.03937" style="stroke: #000000; stroke-width: 0.6"/>
      </g>
     </g>
     <g id="text_34">
      <text style="font-size: 7px; font-family: 'Arial'; text-anchor: middle" x="161.457874" y="348.049839" transform="rotate(-0 161.457874 348.049839)">60</text>
     </g>
    </g>
    <g id="xtick_14">
     <g id="line2d_33">
      <g>
       <use xlink:href="#ma58bea29cb" x="199.714961" y="337.03937" style="stroke: #000000; stroke-width: 0.6"/>
      </g>
     </g>
     <g id="text_35">
      <text style="font-size: 7px; font-family: 'Arial'; text-anchor: middle" x="199.714961" y="348.049839" transform="rotate(-0 199.714961 348.049839)">80</text>
     </g>
    </g>
    <g id="xtick_15">
     <g id="line2d_34">
      <g>
       <use xlink:href="#ma58bea29cb" x="237.972047" y="337.03937" style="stroke: #000000; stroke-width: 0.6"/>
      </g>
     </g>
     <g id="text_36">
      <text style="font-size: 7px; font-family: 'Arial'; text-anchor: middle" x="237.972047" y="348.049839" transform="rotate(-0 237.972047 348.049839)">100</text>
     </g>
    </g>
    <g id="text_37">
     <text style="font-size: 7px; font-family: 'Arial'; text-anchor: middle" x="142.329331" y="358.53687" transform="rotate(-0 142.329331 358.53687)">Planned requests (%)</text>
    </g>
   </g>
   <g id="matplotlib.axis_6">
    <g id="ytick_10">
     <g id="line2d_35">
      <g>
       <use xlink:href="#m8c8992416b" x="46.686614" y="239.592632" style="stroke: #000000; stroke-width: 0.6"/>
      </g>
     </g>
     <g id="text_38">
      <text style="font-size: 7px; font-family: 'Arial'; text-anchor: end" x="40.686614" y="242.097866" transform="rotate(-0 40.686614 242.097866)">Jev</text>
     </g>
    </g>
    <g id="ytick_11">
     <g id="line2d_36">
      <g>
       <use xlink:href="#m8c8992416b" x="46.686614" y="267.594568" style="stroke: #000000; stroke-width: 0.6"/>
      </g>
     </g>
     <g id="text_39">
      <text style="font-size: 7px; font-family: 'Arial'; text-anchor: end" x="40.686614" y="270.099802" transform="rotate(-0 40.686614 270.099802)">Luna</text>
     </g>
    </g>
    <g id="ytick_12">
     <g id="line2d_37">
      <g>
       <use xlink:href="#m8c8992416b" x="46.686614" y="295.596504" style="stroke: #000000; stroke-width: 0.6"/>
      </g>
     </g>
     <g id="text_40">
      <text style="font-size: 7px; font-family: 'Arial'; text-anchor: end" x="40.686614" y="298.101739" transform="rotate(-0 40.686614 298.101739)">Gemini</text>
     </g>
    </g>
    <g id="ytick_13">
     <g id="line2d_38">
      <g>
       <use xlink:href="#m8c8992416b" x="46.686614" y="323.598441" style="stroke: #000000; stroke-width: 0.6"/>
      </g>
     </g>
     <g id="text_41">
      <text style="font-size: 7px; font-family: 'Arial'; text-anchor: end" x="40.686614" y="326.146331" transform="rotate(-0 40.686614 326.146331)">DeepSeek</text>
     </g>
    </g>
   </g>
   <g id="patch_25">
    <path d="M 46.686614 337.03937 
L 46.686614 226.151702 
" style="fill: none; stroke: #000000; stroke-width: 0.6; stroke-linejoin: miter; stroke-linecap: square"/>
   </g>
   <g id="patch_26">
    <path d="M 46.686614 337.03937 
L 237.972047 337.03937 
" style="fill: none; stroke: #000000; stroke-width: 0.6; stroke-linejoin: miter; stroke-linecap: square"/>
   </g>
   <g id="text_42">
    <text style="font-size: 6px; font-family: 'Arial'; text-anchor: middle" x="128.779946" y="241.143725" transform="rotate(-0 128.779946 241.143725)">82.3</text>
   </g>
   <g id="text_43">
    <text style="font-size: 6px; font-family: 'Arial'; text-anchor: middle" x="127.584412" y="269.145662" transform="rotate(-0 127.584412 269.145662)">77.1</text>
   </g>
   <g id="text_44">
    <text style="font-size: 6px; font-family: 'Arial'; text-anchor: middle" x="129.278085" y="297.147598" transform="rotate(-0 129.278085 297.147598)">76.8</text>
   </g>
   <g id="text_45">
    <text style="font-size: 6px; font-family: 'Arial'; text-anchor: middle" x="125.492227" y="325.149534" transform="rotate(-0 125.492227 325.149534)">78.0</text>
   </g>
   <g id="text_46">
    <text style="font-weight: 700; font-size: 8px; font-family: 'Arial'; text-anchor: start" x="21.819508" y="223.006939" transform="rotate(-0 21.819508 223.006939)">c</text>
   </g>
   <g id="text_47">
    <text style="font-size: 7px; font-family: 'Arial'; text-anchor: start" x="46.686614" y="218.151702" transform="rotate(-0 46.686614 218.151702)">Error direction · first round, all main scenarios</text>
   </g>
   <g id="legend_2">
    <g id="patch_27">
     <path d="M 88.07312 373.129393 
L 94.57312 373.129393 
L 94.57312 368.579393 
L 88.07312 368.579393 
z
" style="fill: #c77c65; stroke: #ffffff; stroke-width: 0.3; stroke-linejoin: miter"/>
    </g>
    <g id="text_48">
     <text style="font-size: 6.5px; font-family: 'Arial'; text-anchor: start" x="99.77312" y="373.129393" transform="rotate(-0 99.77312 373.129393)">Undertriage</text>
    </g>
    <g id="patch_28">
     <path d="M 88.07312 382.400018 
L 94.57312 382.400018 
L 94.57312 377.850018 
L 88.07312 377.850018 
z
" style="fill: #b9cdd0; stroke: #ffffff; stroke-width: 0.3; stroke-linejoin: miter"/>
    </g>
    <g id="text_49">
     <text style="font-size: 6.5px; font-family: 'Arial'; text-anchor: start" x="99.77312" y="382.400018" transform="rotate(-0 99.77312 382.400018)">Agreement</text>
    </g>
    <g id="patch_29">
     <path d="M 138.283589 373.129393 
L 144.783589 373.129393 
L 144.783589 368.579393 
L 138.283589 368.579393 
z
" style="fill: #c6b793; stroke: #ffffff; stroke-width: 0.3; stroke-linejoin: miter"/>
    </g>
    <g id="text_50">
     <text style="font-size: 6.5px; font-family: 'Arial'; text-anchor: start" x="149.983589" y="373.129393" transform="rotate(-0 149.983589 373.129393)">Overtriage</text>
    </g>
    <g id="patch_30">
     <path d="M 138.283589 382.400018 
L 144.783589 382.400018 
L 144.783589 377.850018 
L 138.283589 377.850018 
z
" style="fill: #444444; stroke: #ffffff; stroke-width: 0.3; stroke-linejoin: miter"/>
    </g>
    <g id="text_51">
     <text style="font-size: 6.5px; font-family: 'Arial'; text-anchor: start" x="149.983589" y="382.400018" transform="rotate(-0 149.983589 382.400018)">Technical failure</text>
    </g>
   </g>
  </g>
  <g id="axes_4">
   <g id="patch_31">
    <path d="M 314.48622 337.03937 
L 505.771654 337.03937 
L 505.771654 226.151702 
L 314.48622 226.151702 
z
" style="fill: #ffffff"/>
   </g>
   <g id="patch_32">
    <path d="M 314.48622 231.192051 
L 440.681471 231.192051 
L 440.681471 247.993213 
L 314.48622 247.993213 
z
" clip-path="url(#p65973fcf2b)" style="fill: #8fb8be; stroke: #ffffff; stroke-width: 0.3; stroke-linejoin: miter"/>
   </g>
   <g id="patch_33">
    <path d="M 314.48622 259.193987 
L 427.908673 259.193987 
L 427.908673 275.995149 
L 314.48622 275.995149 
z
" clip-path="url(#p65973fcf2b)" style="fill: #8fb8be; stroke: #ffffff; stroke-width: 0.3; stroke-linejoin: miter"/>
   </g>
   <g id="patch_34">
    <path d="M 314.48622 287.195923 
L 432.166272 287.195923 
L 432.166272 303.997085 
L 314.48622 303.997085 
z
" clip-path="url(#p65973fcf2b)" style="fill: #8fb8be; stroke: #ffffff; stroke-width: 0.3; stroke-linejoin: miter"/>
   </g>
   <g id="patch_35">
    <path d="M 314.48622 315.19786 
L 409.686147 315.19786 
L 409.686147 331.999022 
L 314.48622 331.999022 
z
" clip-path="url(#p65973fcf2b)" style="fill: #8fb8be; stroke: #ffffff; stroke-width: 0.3; stroke-linejoin: miter"/>
   </g>
   <g id="patch_36">
    <path d="M 440.681471 231.192051 
L 465.375549 231.192051 
L 465.375549 247.993213 
L 440.681471 247.993213 
z
" clip-path="url(#p65973fcf2b)" style="fill: #c77c65; stroke: #ffffff; stroke-width: 0.3; stroke-linejoin: miter"/>
   </g>
   <g id="patch_37">
    <path d="M 427.908673 259.193987 
L 453.624574 259.193987 
L 453.624574 275.995149 
L 427.908673 275.995149 
z
" clip-path="url(#p65973fcf2b)" style="fill: #c77c65; stroke: #ffffff; stroke-width: 0.3; stroke-linejoin: miter"/>
   </g>
   <g id="patch_38">
    <path d="M 432.166272 287.195923 
L 461.799165 287.195923 
L 461.799165 303.997085 
L 432.166272 303.997085 
z
" clip-path="url(#p65973fcf2b)" style="fill: #c77c65; stroke: #ffffff; stroke-width: 0.3; stroke-linejoin: miter"/>
   </g>
   <g id="patch_39">
    <path d="M 409.686147 315.19786 
L 425.354113 315.19786 
L 425.354113 331.999022 
L 409.686147 331.999022 
z
" clip-path="url(#p65973fcf2b)" style="fill: #c77c65; stroke: #ffffff; stroke-width: 0.3; stroke-linejoin: miter"/>
   </g>
   <g id="patch_40">
    <path d="M 465.375549 231.192051 
L 470.99558 231.192051 
L 470.99558 247.993213 
L 465.375549 247.993213 
z
" clip-path="url(#p65973fcf2b)" style="fill: #d0dce0; stroke: #ffffff; stroke-width: 0.3; stroke-linejoin: miter"/>
   </g>
   <g id="patch_41">
    <path d="M 453.624574 259.193987 
L 460.777341 259.193987 
L 460.777341 275.995149 
L 453.624574 275.995149 
z
" clip-path="url(#p65973fcf2b)" style="fill: #d0dce0; stroke: #ffffff; stroke-width: 0.3; stroke-linejoin: miter"/>
   </g>
   <g id="patch_42">
    <path d="M 461.799165 287.195923 
L 466.056765 287.195923 
L 466.056765 303.997085 
L 461.799165 303.997085 
z
" clip-path="url(#p65973fcf2b)" style="fill: #d0dce0; stroke: #ffffff; stroke-width: 0.3; stroke-linejoin: miter"/>
   </g>
   <g id="patch_43">
    <path d="M 425.354113 315.19786 
L 444.257855 315.19786 
L 444.257855 331.999022 
L 425.354113 331.999022 
z
" clip-path="url(#p65973fcf2b)" style="fill: #d0dce0; stroke: #ffffff; stroke-width: 0.3; stroke-linejoin: miter"/>
   </g>
   <g id="patch_44">
    <path d="M 470.99558 231.192051 
L 475.593788 231.192051 
L 475.593788 247.993213 
L 470.99558 247.993213 
z
" clip-path="url(#p65973fcf2b)" style="fill: #bda98c; stroke: #ffffff; stroke-width: 0.3; stroke-linejoin: miter"/>
   </g>
   <g id="patch_45">
    <path d="M 460.777341 259.193987 
L 477.978044 259.193987 
L 477.978044 275.995149 
L 460.777341 275.995149 
z
" clip-path="url(#p65973fcf2b)" style="fill: #bda98c; stroke: #ffffff; stroke-width: 0.3; stroke-linejoin: miter"/>
   </g>
   <g id="patch_46">
    <path d="M 466.056765 287.195923 
L 477.978044 287.195923 
L 477.978044 303.997085 
L 466.056765 303.997085 
z
" clip-path="url(#p65973fcf2b)" style="fill: #bda98c; stroke: #ffffff; stroke-width: 0.3; stroke-linejoin: miter"/>
   </g>
   <g id="patch_47">
    <path d="M 444.257855 315.19786 
L 477.80774 315.19786 
L 477.80774 331.999022 
L 444.257855 331.999022 
z
" clip-path="url(#p65973fcf2b)" style="fill: #bda98c; stroke: #ffffff; stroke-width: 0.3; stroke-linejoin: miter"/>
   </g>
   <g id="patch_48">
    <path d="M 475.593788 231.192051 
L 477.978044 231.192051 
L 477.978044 247.993213 
L 475.593788 247.993213 
z
" clip-path="url(#p65973fcf2b)" style="fill: #444444; stroke: #ffffff; stroke-width: 0.3; stroke-linejoin: miter"/>
   </g>
   <g id="patch_49">
    <path d="M 477.978044 259.193987 
L 477.978044 259.193987 
L 477.978044 275.995149 
L 477.978044 275.995149 
z
" clip-path="url(#p65973fcf2b)" style="fill: #444444; stroke: #ffffff; stroke-width: 0.3; stroke-linejoin: miter"/>
   </g>
   <g id="patch_50">
    <path d="M 477.978044 287.195923 
L 477.978044 287.195923 
L 477.978044 303.997085 
L 477.978044 303.997085 
z
" clip-path="url(#p65973fcf2b)" style="fill: #444444; stroke: #ffffff; stroke-width: 0.3; stroke-linejoin: miter"/>
   </g>
   <g id="patch_51">
    <path d="M 477.80774 315.19786 
L 477.978044 315.19786 
L 477.978044 331.999022 
L 477.80774 331.999022 
z
" clip-path="url(#p65973fcf2b)" style="fill: #444444; stroke: #ffffff; stroke-width: 0.3; stroke-linejoin: miter"/>
   </g>
   <g id="matplotlib.axis_7">
    <g id="xtick_16">
     <g id="line2d_39">
      <g>
       <use xlink:href="#ma58bea29cb" x="314.48622" y="337.03937" style="stroke: #000000; stroke-width: 0.6"/>
      </g>
     </g>
     <g id="text_52">
      <text style="font-size: 7px; font-family: 'Arial'; text-anchor: middle" x="314.48622" y="348.049839" transform="rotate(-0 314.48622 348.049839)">0</text>
     </g>
    </g>
    <g id="xtick_17">
     <g id="line2d_40">
      <g>
       <use xlink:href="#ma58bea29cb" x="355.359176" y="337.03937" style="stroke: #000000; stroke-width: 0.6"/>
      </g>
     </g>
     <g id="text_53">
      <text style="font-size: 7px; font-family: 'Arial'; text-anchor: middle" x="355.359176" y="348.049839" transform="rotate(-0 355.359176 348.049839)">25</text>
     </g>
    </g>
    <g id="xtick_18">
     <g id="line2d_41">
      <g>
       <use xlink:href="#ma58bea29cb" x="396.232132" y="337.03937" style="stroke: #000000; stroke-width: 0.6"/>
      </g>
     </g>
     <g id="text_54">
      <text style="font-size: 7px; font-family: 'Arial'; text-anchor: middle" x="396.232132" y="348.049839" transform="rotate(-0 396.232132 348.049839)">50</text>
     </g>
    </g>
    <g id="xtick_19">
     <g id="line2d_42">
      <g>
       <use xlink:href="#ma58bea29cb" x="437.105088" y="337.03937" style="stroke: #000000; stroke-width: 0.6"/>
      </g>
     </g>
     <g id="text_55">
      <text style="font-size: 7px; font-family: 'Arial'; text-anchor: middle" x="437.105088" y="348.049839" transform="rotate(-0 437.105088 348.049839)">75</text>
     </g>
    </g>
    <g id="xtick_20">
     <g id="line2d_43">
      <g>
       <use xlink:href="#ma58bea29cb" x="477.978044" y="337.03937" style="stroke: #000000; stroke-width: 0.6"/>
      </g>
     </g>
     <g id="text_56">
      <text style="font-size: 7px; font-family: 'Arial'; text-anchor: middle" x="477.978044" y="348.049839" transform="rotate(-0 477.978044 348.049839)">100</text>
     </g>
    </g>
    <g id="text_57">
     <text style="font-size: 7px; font-family: 'Arial'; text-anchor: middle" x="410.128937" y="358.53687" transform="rotate(-0 410.128937 358.53687)">Planned inputs (%)</text>
    </g>
   </g>
   <g id="matplotlib.axis_8">
    <g id="ytick_14">
     <g id="line2d_44">
      <g>
       <use xlink:href="#m8c8992416b" x="314.48622" y="239.592632" style="stroke: #000000; stroke-width: 0.6"/>
      </g>
     </g>
     <g id="text_58">
      <text style="font-size: 7px; font-family: 'Arial'; text-anchor: end" x="308.48622" y="242.097866" transform="rotate(-0 308.48622 242.097866)">Jev</text>
     </g>
    </g>
    <g id="ytick_15">
     <g id="line2d_45">
      <g>
       <use xlink:href="#m8c8992416b" x="314.48622" y="267.594568" style="stroke: #000000; stroke-width: 0.6"/>
      </g>
     </g>
     <g id="text_59">
      <text style="font-size: 7px; font-family: 'Arial'; text-anchor: end" x="308.48622" y="270.099802" transform="rotate(-0 308.48622 270.099802)">Luna</text>
     </g>
    </g>
    <g id="ytick_16">
     <g id="line2d_46">
      <g>
       <use xlink:href="#m8c8992416b" x="314.48622" y="295.596504" style="stroke: #000000; stroke-width: 0.6"/>
      </g>
     </g>
     <g id="text_60">
      <text style="font-size: 7px; font-family: 'Arial'; text-anchor: end" x="308.48622" y="298.101739" transform="rotate(-0 308.48622 298.101739)">Gemini</text>
     </g>
    </g>
    <g id="ytick_17">
     <g id="line2d_47">
      <g>
       <use xlink:href="#m8c8992416b" x="314.48622" y="323.598441" style="stroke: #000000; stroke-width: 0.6"/>
      </g>
     </g>
     <g id="text_61">
      <text style="font-size: 7px; font-family: 'Arial'; text-anchor: end" x="308.48622" y="326.146331" transform="rotate(-0 308.48622 326.146331)">DeepSeek</text>
     </g>
    </g>
   </g>
   <g id="patch_52">
    <path d="M 314.48622 337.03937 
L 314.48622 226.151702 
" style="fill: none; stroke: #000000; stroke-width: 0.6; stroke-linejoin: miter; stroke-linecap: square"/>
   </g>
   <g id="patch_53">
    <path d="M 314.48622 337.03937 
L 505.771654 337.03937 
" style="fill: none; stroke: #000000; stroke-width: 0.6; stroke-linejoin: miter; stroke-linecap: square"/>
   </g>
   <g id="text_62">
    <text style="font-size: 6.5px; font-family: 'Arial'; text-anchor: middle" x="377.583846" y="241.272983" transform="rotate(-0 377.583846 241.272983)">741</text>
   </g>
   <g id="text_63">
    <text style="font-size: 6.5px; font-family: 'Arial'; text-anchor: middle" x="371.197447" y="269.27492" transform="rotate(-0 371.197447 269.27492)">666</text>
   </g>
   <g id="text_64">
    <text style="font-size: 6.5px; font-family: 'Arial'; text-anchor: middle" x="373.326246" y="297.276856" transform="rotate(-0 373.326246 297.276856)">691</text>
   </g>
   <g id="text_65">
    <text style="font-size: 6.5px; font-family: 'Arial'; text-anchor: middle" x="362.086184" y="325.278792" transform="rotate(-0 362.086184 325.278792)">559</text>
   </g>
   <g id="text_66">
    <text style="font-size: 6.5px; font-family: 'Arial'; text-anchor: middle" x="453.02851" y="241.272983" transform="rotate(-0 453.02851 241.272983)">145</text>
   </g>
   <g id="text_67">
    <text style="font-size: 6.5px; font-family: 'Arial'; text-anchor: middle" x="440.766623" y="269.27492" transform="rotate(-0 440.766623 269.27492)">151</text>
   </g>
   <g id="text_68">
    <text style="font-size: 6.5px; font-family: 'Arial'; text-anchor: middle" x="446.982719" y="297.276856" transform="rotate(-0 446.982719 297.276856)">174</text>
   </g>
   <g id="text_69">
    <text style="font-size: 6.5px; font-family: 'Arial'; text-anchor: middle" x="417.52013" y="325.278792" transform="rotate(-0 417.52013 325.278792)">92</text>
   </g>
   <g id="text_70">
    <text style="font-size: 6.5px; font-family: 'Arial'; text-anchor: start" x="481.24788" y="241.272983" transform="rotate(-0 481.24788 241.272983)">93.7%</text>
   </g>
   <g id="text_71">
    <text style="font-size: 6.5px; font-family: 'Arial'; text-anchor: start" x="481.24788" y="269.27492" transform="rotate(-0 481.24788 269.27492)">85.1%</text>
   </g>
   <g id="text_72">
    <text style="font-size: 6.5px; font-family: 'Arial'; text-anchor: start" x="481.24788" y="297.276856" transform="rotate(-0 481.24788 297.276856)">90.1%</text>
   </g>
   <g id="text_73">
    <text style="font-size: 6.5px; font-family: 'Arial'; text-anchor: start" x="481.24788" y="325.278792" transform="rotate(-0 481.24788 325.278792)">67.9%</text>
   </g>
   <g id="text_74">
    <text style="font-size: 6px; font-family: 'Arial'; text-anchor: start" x="479.612962" y="222.79147" transform="rotate(-0 479.612962 222.79147)">Identical¹</text>
   </g>
   <g id="text_75">
    <text style="font-weight: 700; font-size: 8px; font-family: 'Arial'; text-anchor: start" x="289.619114" y="223.006939" transform="rotate(-0 289.619114 223.006939)">d</text>
   </g>
   <g id="text_76">
    <text style="font-size: 7px; font-family: 'Arial'; text-anchor: start" x="314.48622" y="218.151702" transform="rotate(-0 314.48622 218.151702)">Three-round consistency and reference agreement</text>
   </g>
   <g id="legend_3">
    <g id="patch_54">
     <path d="M 317.98675 372.311346 
L 323.98675 372.311346 
L 323.98675 368.111346 
L 317.98675 368.111346 
z
" style="fill: #8fb8be; stroke: #ffffff; stroke-width: 0.3; stroke-linejoin: miter"/>
    </g>
    <g id="text_77">
     <text style="font-size: 6px; font-family: 'Arial'; text-anchor: start" x="328.78675" y="372.311346" transform="rotate(-0 328.78675 372.311346)">Stable, reference-agreeing</text>
    </g>
    <g id="patch_55">
     <path d="M 317.98675 380.941971 
L 323.98675 380.941971 
L 323.98675 376.741971 
L 317.98675 376.741971 
z
" style="fill: #c77c65; stroke: #ffffff; stroke-width: 0.3; stroke-linejoin: miter"/>
    </g>
    <g id="text_78">
     <text style="font-size: 6px; font-family: 'Arial'; text-anchor: start" x="328.78675" y="380.941971" transform="rotate(-0 328.78675 380.941971)">Stable, reference-disagreeing</text>
    </g>
    <g id="patch_56">
     <path d="M 317.98675 389.572596 
L 323.98675 389.572596 
L 323.98675 385.372596 
L 317.98675 385.372596 
z
" style="fill: #d0dce0; stroke: #ffffff; stroke-width: 0.3; stroke-linejoin: miter"/>
    </g>
    <g id="text_79">
     <text style="font-size: 6px; font-family: 'Arial'; text-anchor: start" x="328.78675" y="389.572596" transform="rotate(-0 328.78675 389.572596)">Changed, always agreeing</text>
    </g>
    <g id="patch_57">
     <path d="M 411.0955 372.311346 
L 417.0955 372.311346 
L 417.0955 368.111346 
L 411.0955 368.111346 
z
" style="fill: #bda98c; stroke: #ffffff; stroke-width: 0.3; stroke-linejoin: miter"/>
    </g>
    <g id="text_80">
     <text style="font-size: 6px; font-family: 'Arial'; text-anchor: start" x="421.8955" y="372.311346" transform="rotate(-0 421.8955 372.311346)">Changed, some disagreement</text>
    </g>
    <g id="patch_58">
     <path d="M 411.0955 380.868846 
L 417.0955 380.868846 
L 417.0955 376.668846 
L 411.0955 376.668846 
z
" style="fill: #444444; stroke: #ffffff; stroke-width: 0.3; stroke-linejoin: miter"/>
    </g>
    <g id="text_81">
     <text style="font-size: 6px; font-family: 'Arial'; text-anchor: start" x="421.8955" y="380.868846" transform="rotate(-0 421.8955 380.868846)">Technical failure</text>
    </g>
   </g>
  </g>
 </g>
 <defs>
  <clipPath id="p8e19f687bc">
   <rect x="46.686614" y="28.771654" width="191.285433" height="110.887668"/>
  </clipPath>
  <clipPath id="pd80a57b951">
   <rect x="314.48622" y="28.771654" width="191.285433" height="110.887668"/>
  </clipPath>
  <clipPath id="p4c9def488a">
   <rect x="46.686614" y="226.151702" width="191.285433" height="110.887668"/>
  </clipPath>
  <clipPath id="p65973fcf2b">
   <rect x="314.48622" y="226.151702" width="191.285433" height="110.887668"/>
  </clipPath>
 </defs>
</svg>
